<svg width="46" height="47" viewBox="0 0 46 47" fill="none" xmlns="http://www.w3.org/2000/svg">
<path fill-rule="evenodd" clip-rule="evenodd" d="M21.9835 0.921034C22.5449 0.359655 23.4551 0.359655 24.0165 0.921034L29.7665 6.67103C30.3278 7.23241 30.3278 8.14259 29.7665 8.70397C29.2051 9.26534 28.2949 9.26534 27.7335 8.70397L24.4375 5.40793V16.3125C24.4375 17.1064 23.7939 17.75 23 17.75C22.2061 17.75 21.5625 17.1064 21.5625 16.3125V5.40793L18.2665 8.70397C17.7051 9.26534 16.7949 9.26534 16.2335 8.70397C15.6722 8.14259 15.6722 7.23241 16.2335 6.67103L21.9835 0.921034ZM23 29.25C23.7939 29.25 24.4375 29.8936 24.4375 30.6875V41.5921L27.7335 38.296C28.2949 37.7347 29.2051 37.7347 29.7665 38.296C30.3278 38.8574 30.3278 39.7676 29.7665 40.329L24.0165 46.079C23.4551 46.6403 22.5449 46.6403 21.9835 46.079L16.2335 40.329C15.6722 39.7676 15.6722 38.8574 16.2335 38.296C16.7949 37.7347 17.7051 37.7347 18.2665 38.296L21.5625 41.5921V30.6875C21.5625 29.8936 22.2061 29.25 23 29.25Z" fill="#E3E3E3"/>
<path fill-rule="evenodd" clip-rule="evenodd" d="M0.421034 24.5165C-0.140345 23.9551 -0.140345 23.0449 0.421034 22.4835L6.17103 16.7335C6.73241 16.1722 7.64259 16.1722 8.20397 16.7335C8.76534 17.2949 8.76534 18.2051 8.20397 18.7665L4.90793 22.0625H15.8125C16.6064 22.0625 17.25 22.7061 17.25 23.5C17.25 24.2939 16.6064 24.9375 15.8125 24.9375H4.90793L8.20397 28.2335C8.76534 28.7949 8.76534 29.7051 8.20397 30.2665C7.64259 30.8278 6.73241 30.8278 6.17103 30.2665L0.421034 24.5165ZM28.75 23.5C28.75 22.7061 29.3936 22.0625 30.1875 22.0625H41.0921L37.796 18.7665C37.2347 18.2051 37.2347 17.2949 37.796 16.7335C38.3574 16.1722 39.2676 16.1722 39.829 16.7335L45.579 22.4835C46.1403 23.0449 46.1403 23.9551 45.579 24.5165L39.829 30.2665C39.2676 30.8278 38.3574 30.8278 37.796 30.2665C37.2347 29.7051 37.2347 28.7949 37.796 28.2335L41.0921 24.9375L30.1875 24.9375C29.3936 24.9375 28.75 24.2939 28.75 23.5Z" fill="#E3E3E3"/>
</svg>
