<svg width="46" height="47" viewBox="0 0 46 47" fill="none" xmlns="http://www.w3.org/2000/svg">
<path d="M31.204 21.046C31.7653 21.6074 31.7653 22.5176 31.204 23.079L22.579 31.704C22.3094 31.9736 21.9437 32.125 21.5625 32.125C21.1813 32.125 20.8156 31.9736 20.546 31.704L16.2335 27.3915C15.6722 26.8301 15.6722 25.9199 16.2335 25.3585C16.7949 24.7972 17.7051 24.7972 18.2665 25.3585L21.5625 28.6546L29.171 21.046C29.7324 20.4847 30.6426 20.4847 31.204 21.046Z" fill="#E3E3E3"/>
<path d="M10.0625 0.5C10.8564 0.5 11.5 1.14359 11.5 1.9375V3.375H34.5V1.9375C34.5 1.14359 35.1436 0.5 35.9375 0.5C36.7314 0.5 37.375 1.14359 37.375 1.9375V3.375H40.25C43.4256 3.375 46 5.94936 46 9.125V40.75C46 43.9256 43.4256 46.5 40.25 46.5H5.75C2.57436 46.5 0 43.9256 0 40.75V9.125C0 5.94936 2.57436 3.375 5.75 3.375H8.625V1.9375C8.625 1.14359 9.26859 0.5 10.0625 0.5ZM2.875 12V40.75C2.875 42.3378 4.16218 43.625 5.75 43.625H40.25C41.8378 43.625 43.125 42.3378 43.125 40.75V12H2.875Z" fill="#E3E3E3"/>
</svg>
