<svg width="43" height="43" viewBox="0 0 43 43" fill="none" xmlns="http://www.w3.org/2000/svg">
<path d="M35.7437 37.625C32.0111 37.625 28.3233 36.8113 24.6802 35.1839C21.0372 33.5564 17.7226 31.2497 14.7365 28.2635C11.7503 25.2774 9.44358 21.9628 7.81615 18.3198C6.18872 14.6767 5.375 10.9889 5.375 7.25625C5.375 6.71875 5.55417 6.27083 5.9125 5.9125C6.27083 5.55417 6.71875 5.375 7.25625 5.375H14.5125C14.9306 5.375 15.3038 5.51684 15.6323 5.80052C15.9608 6.0842 16.1549 6.42014 16.2146 6.80833L17.3792 13.0792C17.4389 13.5569 17.424 13.9601 17.3344 14.2885C17.2448 14.617 17.0806 14.9007 16.8417 15.1396L12.4969 19.5292C13.0941 20.634 13.8033 21.7016 14.6245 22.7318C15.4457 23.762 16.349 24.7549 17.3344 25.7104C18.2601 26.6361 19.2306 27.4946 20.2458 28.2859C21.2611 29.0773 22.3361 29.8014 23.4708 30.4583L27.6812 26.2479C27.95 25.9792 28.3009 25.7776 28.7339 25.6432C29.1668 25.5089 29.5924 25.4715 30.0104 25.5312L36.1917 26.7854C36.6097 26.9049 36.9531 27.1214 37.2219 27.4349C37.4906 27.7484 37.625 28.0993 37.625 28.4875V35.7437C37.625 36.2812 37.4458 36.7292 37.0875 37.0875C36.7292 37.4458 36.2812 37.625 35.7437 37.625ZM10.7948 16.125L13.751 13.1687L12.9896 8.95833H9.00312C9.15243 10.1826 9.36146 11.392 9.63021 12.5865C9.89896 13.7809 10.2872 14.9604 10.7948 16.125ZM26.8302 32.1604C27.9948 32.6681 29.1818 33.0712 30.3911 33.3698C31.6005 33.6684 32.8174 33.8625 34.0417 33.9521V30.0104L29.8312 29.1594L26.8302 32.1604Z" fill="#E3E3E3"/>
</svg>
