<svg width="43" height="43" viewBox="0 0 43 43" fill="none" xmlns="http://www.w3.org/2000/svg">
<path d="M21.5 21.4999C22.4854 21.4999 23.329 21.149 24.0307 20.4473C24.7325 19.7456 25.0834 18.902 25.0834 17.9166C25.0834 16.9312 24.7325 16.0876 24.0307 15.3859C23.329 14.6841 22.4854 14.3333 21.5 14.3333C20.5146 14.3333 19.671 14.6841 18.9693 15.3859C18.2676 16.0876 17.9167 16.9312 17.9167 17.9166C17.9167 18.902 18.2676 19.7456 18.9693 20.4473C19.671 21.149 20.5146 21.4999 21.5 21.4999ZM21.5 34.6687C25.1431 31.3242 27.8455 28.2859 29.6073 25.5536C31.3691 22.8213 32.25 20.3951 32.25 18.2749C32.25 15.0201 31.2123 12.355 29.137 10.2796C27.0617 8.20426 24.516 7.16659 21.5 7.16659C18.484 7.16659 15.9384 8.20426 13.863 10.2796C11.7877 12.355 10.75 15.0201 10.75 18.2749C10.75 20.3951 11.6309 22.8213 13.3927 25.5536C15.1545 28.2859 17.857 31.3242 21.5 34.6687ZM21.5 39.4166C16.6924 35.3256 13.1016 31.5258 10.7276 28.0171C8.35367 24.5084 7.16669 21.261 7.16669 18.2749C7.16669 13.7958 8.60749 10.2273 11.4891 7.56971C14.3707 4.91207 17.7077 3.58325 21.5 3.58325C25.2924 3.58325 28.6294 4.91207 31.511 7.56971C34.3926 10.2273 35.8334 13.7958 35.8334 18.2749C35.8334 21.261 34.6464 24.5084 32.2724 28.0171C29.8985 31.5258 26.3077 35.3256 21.5 39.4166Z" fill="#E3E3E3"/>
</svg>
