<svg width="43" height="43" viewBox="0 0 43 43" fill="none" xmlns="http://www.w3.org/2000/svg">
<path d="M7.16665 35.8334C6.18123 35.8334 5.33765 35.4825 4.63592 34.7808C3.93418 34.0791 3.58331 33.2355 3.58331 32.2501V10.7501C3.58331 9.76466 3.93418 8.92109 4.63592 8.21935C5.33765 7.51762 6.18123 7.16675 7.16665 7.16675H35.8333C36.8187 7.16675 37.6623 7.51762 38.364 8.21935C39.0658 8.92109 39.4166 9.76466 39.4166 10.7501V32.2501C39.4166 33.2355 39.0658 34.0791 38.364 34.7808C37.6623 35.4825 36.8187 35.8334 35.8333 35.8334H7.16665ZM21.5 23.2917L7.16665 14.3334V32.2501H35.8333V14.3334L21.5 23.2917ZM21.5 19.7084L35.8333 10.7501H7.16665L21.5 19.7084ZM7.16665 14.3334V10.7501V32.2501V14.3334Z" fill="#E3E3E3"/>
</svg>
