<?xml version="1.0" encoding="utf-8"?>
<!-- Generator: Adobe Illustrator 27.1.1, SVG Export Plug-In . SVG Version: 6.00 Build 0)  -->
<svg version="1.1" id="Layer_1" xmlns="http://www.w3.org/2000/svg" xmlns:xlink="http://www.w3.org/1999/xlink" x="0px" y="0px"
	 viewBox="0 0 128 128" style="enable-background:new 0 0 128 128;" xml:space="preserve">
<style type="text/css">
	.st0{fill:#E6AA47;}
	.st1{fill:#E34447;}
</style>
<g>
	<g>
		<g>
			<path class="st0" d="M16.65,64.44c-1.84,3.19-3.22,6.52-4.16,9.91c-1.02,3.68-1.52,7.43-1.53,11.16
				c-0.01,7.33,1.88,14.56,5.47,20.94c1.83,3.25,4.11,6.29,6.8,9c2.6,2.62,5.57,4.93,8.92,6.86c3.15,1.82,6.45,3.19,9.8,4.13
				c3.7,1.03,7.47,1.54,11.21,1.56c7.37,0.02,14.64-1.88,21.05-5.5c3.27-1.85,6.32-4.14,9.03-6.86c2.58-2.57,4.87-5.53,6.78-8.84
				c1.86-3.21,3.24-6.57,4.18-9.99c1.02-3.71,1.51-7.49,1.5-11.24c-0.02-7.37-1.95-14.63-5.61-21.03c-1.86-3.25-4.16-6.28-6.88-8.98
				c-2.54-2.52-5.45-4.77-8.7-6.64c-3.25-1.88-6.64-3.27-10.1-4.21c-3.69-1-7.45-1.49-11.19-1.47c-7.33,0.02-14.55,1.95-20.91,5.58
				c-3.24,1.85-6.26,4.13-8.95,6.83C20.81,58.22,18.54,61.15,16.65,64.44z M53.26,46.74l0.06,9.26c-5.15,0.01-10.22,1.36-14.7,3.92
				l-4.57-8.05C39.89,48.52,46.53,46.75,53.26,46.74z M34.92,67.06c1.64-1.63,3.47-3.01,5.42-4.13c3.95-2.26,8.44-3.45,13-3.46
				c2.26,0,4.54,0.29,6.78,0.9c2.16,0.58,4.27,1.44,6.29,2.61c2.02,1.17,3.83,2.56,5.4,4.14c1.65,1.64,3.05,3.48,4.18,5.45
				c2.29,3.98,3.5,8.51,3.49,13.11c-0.01,2.28-0.31,4.58-0.93,6.83c-0.58,2.12-1.44,4.19-2.58,6.18c-1.2,2.08-2.65,3.94-4.28,5.55
				c-1.66,1.64-3.52,3.03-5.51,4.15c-4,2.25-8.54,3.42-13.13,3.37c-2.27-0.02-4.56-0.34-6.8-0.97c-2.05-0.58-4.06-1.41-5.99-2.53
				c-2.12-1.22-4-2.7-5.63-4.37c-1.62-1.65-2.99-3.5-4.1-5.47c-2.23-3.97-3.38-8.47-3.35-13.02c0.02-2.25,0.33-4.52,0.94-6.75
				c0.58-2.09,1.43-4.13,2.56-6.1C31.89,70.5,33.31,68.66,34.92,67.06z M80.77,58.06l-6.5,6.59c-1.79-1.78-3.83-3.36-6.11-4.68
				c-2.29-1.32-4.67-2.3-7.11-2.96l2.45-8.93c3.18,0.86,6.3,2.14,9.28,3.87C75.76,53.67,78.43,55.73,80.77,58.06z M92.23,85.6
				l-9.26,0.06c0-5.19-1.36-10.31-3.94-14.8l8.05-4.58C90.44,72.15,92.21,78.83,92.23,85.6z M80.77,113.19l-6.59-6.51
				c1.84-1.82,3.46-3.91,4.82-6.25c1.3-2.25,2.27-4.6,2.93-7l8.93,2.45c-0.86,3.14-2.13,6.22-3.84,9.17
				C85.25,108.11,83.15,110.82,80.77,113.19z M53.14,124.51l-0.06-9.26c5.19,0.04,10.32-1.28,14.84-3.84l4.58,8.05
				C66.6,122.8,59.91,124.54,53.14,124.51z M25.69,112.97l6.5-6.59c1.84,1.87,3.95,3.53,6.34,4.9c2.19,1.26,4.48,2.22,6.8,2.87
				l-2.45,8.93c-3.07-0.86-6.09-2.12-8.98-3.79C30.82,117.52,28.07,115.38,25.69,112.97z M14.45,85.48l9.26-0.06
				c-0.03,5.15,1.29,10.24,3.81,14.72l-8.05,4.58C16.16,98.86,14.43,92.22,14.45,85.48z M15.85,75.27c0.86-3.11,2.13-6.16,3.82-9.09
				c1.74-3.02,3.83-5.72,6.19-8.07l6.59,6.5c-1.81,1.8-3.42,3.88-4.76,6.2c-1.29,2.23-2.25,4.55-2.91,6.92L15.85,75.27z M37.4,69.51
				c-1.41,1.39-2.65,2.99-3.69,4.78c-0.98,1.7-1.72,3.47-2.22,5.28c-0.53,1.91-0.8,3.86-0.82,5.8c-0.04,3.96,0.96,7.87,2.89,11.33
				c0.95,1.7,2.12,3.29,3.52,4.72c1.42,1.46,3.07,2.76,4.92,3.83c1.66,0.96,3.4,1.69,5.17,2.19c1.93,0.55,3.9,0.83,5.85,0.85
				c4,0.05,7.95-0.96,11.43-2.92c1.72-0.96,3.31-2.16,4.75-3.57l0,0c1.43-1.4,2.69-3.02,3.74-4.84c1-1.73,1.74-3.53,2.24-5.36
				c0.53-1.94,0.79-3.92,0.8-5.88c0.01-4-1.04-7.94-3.03-11.4c-0.98-1.7-2.18-3.28-3.6-4.69c-1.37-1.37-2.94-2.59-4.7-3.61
				c-1.76-1.02-3.6-1.77-5.47-2.27c-1.92-0.52-3.89-0.77-5.83-0.77c-3.96,0-7.86,1.03-11.29,3C40.38,66.93,38.81,68.11,37.4,69.51z"
				/>
			<path class="st0" d="M33.72,74.29c-0.98,1.7-1.72,3.47-2.22,5.28c-0.53,1.91-0.8,3.86-0.82,5.8c-0.04,3.96,0.96,7.87,2.89,11.33
				c0.95,1.7,2.12,3.29,3.52,4.72c1.42,1.46,3.07,2.76,4.92,3.83c1.66,0.96,3.4,1.69,5.17,2.19c1.93,0.55,3.9,0.83,5.85,0.85
				c4,0.05,7.95-0.96,11.43-2.92c1.72-0.96,3.31-2.16,4.75-3.57l0,0c1.43-1.4,2.69-3.02,3.74-4.84c1-1.73,1.74-3.53,2.24-5.36
				c0.53-1.94,0.79-3.92,0.8-5.88c0.01-4-1.04-7.94-3.03-11.4c-0.98-1.7-2.18-3.28-3.6-4.69c-1.37-1.37-2.94-2.59-4.7-3.61
				c-1.76-1.02-3.6-1.77-5.47-2.27c-1.92-0.52-3.89-0.77-5.83-0.77c-3.96,0-7.86,1.03-11.29,3c-1.68,0.96-3.25,2.15-4.66,3.55
				C36,70.9,34.75,72.5,33.72,74.29z"/>
			<path class="st0" d="M33.72,74.29c-0.98,1.7-1.72,3.47-2.22,5.28c-0.53,1.91-0.8,3.86-0.82,5.8c-0.04,3.96,0.96,7.87,2.89,11.33
				c0.95,1.7,2.12,3.29,3.52,4.72c1.42,1.46,3.07,2.76,4.92,3.83c1.66,0.96,3.4,1.69,5.17,2.19c1.93,0.55,3.9,0.83,5.85,0.85
				c4,0.05,7.95-0.96,11.43-2.92c1.72-0.96,3.31-2.16,4.75-3.57l0,0c1.43-1.4,2.69-3.02,3.74-4.84c1-1.73,1.74-3.53,2.24-5.36
				c0.53-1.94,0.79-3.92,0.8-5.88c0.01-4-1.04-7.94-3.03-11.4c-0.98-1.7-2.18-3.28-3.6-4.69c-1.37-1.37-2.94-2.59-4.7-3.61
				c-1.76-1.02-3.6-1.77-5.47-2.27c-1.92-0.52-3.89-0.77-5.83-0.77c-3.96,0-7.86,1.03-11.29,3c-1.68,0.96-3.25,2.15-4.66,3.55
				C36,70.9,34.75,72.5,33.72,74.29z"/>
		</g>
	</g>
	<g>
		<g>
			<path class="st1" d="M67.66,24.73c-0.78,1.36-1.37,2.77-1.77,4.21c-0.42,1.52-0.64,3.07-0.65,4.62
				c-0.03,2.73,0.57,5.43,1.73,7.89c3.16,1,6.27,2.35,9.25,4.08c3.1,1.79,5.92,3.89,8.43,6.23c2.63-0.2,5.2-0.98,7.5-2.28
				c1.37-0.76,2.64-1.72,3.78-2.84c1.14-1.12,2.15-2.41,2.98-3.85c0.79-1.38,1.39-2.81,1.78-4.27c0.42-1.54,0.63-3.12,0.64-4.68
				c0.01-3.18-0.83-6.33-2.42-9.09c-0.78-1.35-1.74-2.61-2.87-3.74c-1.09-1.1-2.34-2.07-3.74-2.87s-2.87-1.41-4.36-1.8
				c-1.53-0.41-3.1-0.61-4.65-0.62c-3.15,0-6.26,0.83-9,2.39c-1.34,0.77-2.59,1.71-3.71,2.82C69.47,22.03,68.48,23.3,67.66,24.73z
				 M67.66,24.73c-0.78,1.36-1.37,2.77-1.77,4.21c-0.42,1.52-0.64,3.07-0.65,4.62c-0.03,2.73,0.57,5.43,1.73,7.89
				c3.16,1,6.27,2.35,9.25,4.08c3.1,1.79,5.92,3.89,8.43,6.23c2.63-0.2,5.2-0.98,7.5-2.28c1.37-0.76,2.64-1.72,3.78-2.84
				c1.14-1.12,2.15-2.41,2.98-3.85c0.79-1.38,1.39-2.81,1.78-4.27c0.42-1.54,0.63-3.12,0.64-4.68c0.01-3.18-0.83-6.33-2.42-9.09
				c-0.78-1.35-1.74-2.61-2.87-3.74c-1.09-1.1-2.34-2.07-3.74-2.87s-2.87-1.41-4.36-1.8c-1.53-0.41-3.1-0.61-4.65-0.62
				c-3.15,0-6.26,0.83-9,2.39c-1.34,0.77-2.59,1.71-3.71,2.82C69.47,22.03,68.48,23.3,67.66,24.73z M54.05,16.88
				c-1.47,2.54-2.57,5.19-3.31,7.89c-0.81,2.93-1.21,5.92-1.22,8.89c0,1.93,0.16,3.86,0.48,5.75c0.93-0.06,1.87-0.1,2.8-0.1
				c-0.34-1.86-0.51-3.76-0.51-5.67l7.38-0.05c-0.01,2.14,0.26,4.26,0.82,6.31c1.03,0.17,2.06,0.37,3.09,0.61
				c-0.77-2.22-1.15-4.58-1.13-6.94c0.01-1.79,0.26-3.6,0.75-5.38c0.46-1.66,1.14-3.29,2.04-4.86c0.95-1.64,2.08-3.1,3.36-4.37
				c1.31-1.3,2.76-2.4,4.32-3.29c3.15-1.8,6.72-2.75,10.35-2.75c1.8,0,3.62,0.23,5.4,0.71c1.72,0.46,3.4,1.15,5.01,2.08
				c1.61,0.93,3.05,2.04,4.31,3.3c1.31,1.31,2.43,2.77,3.33,4.34c1.83,3.17,2.79,6.78,2.78,10.44c0,1.82-0.24,3.65-0.74,5.44
				c-0.46,1.68-1.15,3.34-2.06,4.92c-0.96,1.66-2.11,3.14-3.41,4.42c-1.32,1.31-2.81,2.41-4.39,3.3c-2,1.13-4.17,1.91-6.41,2.33
				c0.71,0.77,1.4,1.57,2.06,2.39c1.99-0.51,3.92-1.28,5.73-2.3l3.65,6.41c-1.62,0.92-3.32,1.68-5.06,2.29
				c0.46,0.82,0.89,1.65,1.29,2.49c1.77-0.64,3.5-1.43,5.14-2.36c2.6-1.47,5.03-3.3,7.2-5.46c2.06-2.05,3.88-4.4,5.4-7.04
				c1.48-2.56,2.58-5.23,3.33-7.96c0.81-2.95,1.21-5.96,1.2-8.95c-0.01-5.87-1.56-11.66-4.47-16.75c-1.48-2.59-3.31-5-5.48-7.15
				c-2.03-2.01-4.34-3.8-6.93-5.29s-5.29-2.61-8.05-3.35C89.17,0.37,86.18-0.01,83.2,0c-5.84,0.02-11.59,1.55-16.66,4.44
				c-2.58,1.47-4.98,3.29-7.13,5.44C57.37,11.93,55.57,14.26,54.05,16.88z M99.88,50.54c1.46-1.45,2.76-3.11,3.84-4.98
				c1.04-1.79,1.81-3.67,2.33-5.57l7.11,1.96c-0.68,2.5-1.7,4.95-3.06,7.3c-1.4,2.43-3.08,4.59-4.97,6.48L99.88,50.54z
				 M103.75,21.99l6.41-3.65c2.68,4.68,4.1,10,4.11,15.39l-7.38,0.04C106.89,29.65,105.8,25.57,103.75,21.99z M91.38,3.85
				c2.53,0.69,5.02,1.71,7.39,3.08c2.38,1.37,4.51,3.01,6.36,4.86l-5.18,5.25c-1.42-1.42-3.05-2.67-4.87-3.72s-3.72-1.83-5.66-2.36
				L91.38,3.85z M67.91,6.86c4.66-2.66,9.94-4.07,15.3-4.08l0.05,7.38c-4.1,0-8.14,1.08-11.71,3.12L67.91,6.86z M56.46,18.27
				c1.39-2.41,3.05-4.55,4.93-6.43l5.25,5.18c-1.45,1.44-2.72,3.09-3.79,4.93c-1.02,1.77-1.79,3.62-2.31,5.51l-7.11-1.95
				C54.1,23.03,55.11,20.6,56.46,18.27z M65.23,33.56c-0.03,2.73,0.57,5.43,1.73,7.89c3.16,1,6.27,2.35,9.25,4.08
				c3.1,1.79,5.92,3.89,8.43,6.23c2.63-0.2,5.2-0.98,7.5-2.28c1.37-0.76,2.64-1.72,3.78-2.84c1.14-1.12,2.15-2.41,2.98-3.85
				c0.79-1.38,1.39-2.81,1.78-4.27c0.42-1.54,0.63-3.12,0.64-4.68c0.01-3.18-0.83-6.33-2.42-9.09c-0.78-1.35-1.74-2.61-2.87-3.74
				c-1.09-1.1-2.34-2.07-3.74-2.87s-2.87-1.41-4.36-1.8c-1.53-0.41-3.1-0.61-4.65-0.62c-3.15,0-6.26,0.83-9,2.39
				c-1.34,0.77-2.59,1.71-3.71,2.82c-1.12,1.11-2.11,2.38-2.94,3.81c-0.78,1.36-1.37,2.77-1.77,4.21
				C65.46,30.46,65.25,32.01,65.23,33.56z"/>
		</g>
	</g>
</g>
</svg>
