<svg width="46" height="47" viewBox="0 0 46 47" fill="none" xmlns="http://www.w3.org/2000/svg">
<path d="M15.8709 1.53189C16.0509 0.920111 16.6123 0.5 17.25 0.5H28.75C29.2121 0.5 29.646 0.722124 29.9162 1.09698C30.1864 1.47183 30.2599 1.95371 30.1137 2.39208L24.9944 17.75H35.9375C36.4865 17.75 36.9876 18.0627 37.2288 18.5559C37.4701 19.0491 37.4093 19.6367 37.0722 20.07L16.9472 45.945C16.5212 46.4928 15.7646 46.658 15.149 46.3377C14.5334 46.0174 14.2345 45.303 14.4386 44.6398L19.6162 27.8125H10.0625C9.60948 27.8125 9.18295 27.5989 8.91154 27.2362C8.64013 26.8735 8.55559 26.404 8.68342 25.9694L15.8709 1.53189ZM18.3256 3.375L11.9837 24.9375H21.5625C22.0187 24.9375 22.4478 25.154 22.7188 25.521C22.9898 25.8879 23.0706 26.3617 22.9364 26.7977L19.493 37.9891L32.9983 20.625H23C22.5379 20.625 22.104 20.4029 21.8339 20.028C21.5637 19.6532 21.4902 19.1713 21.6363 18.7329L26.7556 3.375H18.3256Z" fill="#E3E3E3"/>
</svg>
