<svg width="42" height="47" viewBox="0 0 42 47" fill="none" xmlns="http://www.w3.org/2000/svg">
<path d="M13.3466 5.07366C10.2243 5.92001 7.06239 6.92058 5.191 7.53124C4.67612 7.69925 4.31457 8.1451 4.24668 8.65461C2.65429 20.6046 6.33358 29.3266 10.7237 35.0698C12.9279 37.9533 15.3127 40.086 17.3009 41.4881C18.2958 42.1896 19.1753 42.6969 19.8664 43.0223C20.2124 43.1851 20.4954 43.2949 20.7103 43.3615C20.8873 43.4164 20.9784 43.4293 21 43.4324C21.0216 43.4293 21.1127 43.4164 21.2897 43.3615C21.5046 43.2949 21.7876 43.1851 22.1336 43.0223C22.8247 42.6969 23.7042 42.1896 24.6991 41.4881C26.6873 40.086 29.0721 37.9533 31.2763 35.0698C35.6664 29.3266 39.3457 20.6046 37.7533 8.65461C37.6854 8.14511 37.3239 7.69925 36.809 7.53124C34.9376 6.92058 31.7757 5.92001 28.6534 5.07366C25.4611 4.20832 22.5262 3.56667 21 3.56667C19.4738 3.56667 16.5389 4.20832 13.3466 5.07366ZM12.581 2.109C15.7025 1.26286 19.0177 0.5 21 0.5C22.9823 0.5 26.2975 1.26286 29.419 2.109C32.6105 2.97413 35.8259 3.992 37.7173 4.60919C39.2958 5.12425 40.4897 6.51907 40.719 8.23977C42.4342 21.1121 38.4569 30.6497 33.6327 36.9607C31.2297 40.1043 28.6181 42.4473 26.3961 44.0142C25.2859 44.7971 24.257 45.3976 23.3833 45.8089C22.5759 46.1889 21.7122 46.5 21 46.5C20.2879 46.5 19.4241 46.1889 18.6168 45.8089C17.743 45.3976 16.7141 44.7971 15.6039 44.0142C13.3819 42.4473 10.7703 40.1043 8.36726 36.9607C3.54312 30.6497 -0.434253 21.1121 1.28104 8.23977C1.51033 6.51907 2.70423 5.12425 4.28267 4.60919C6.17409 3.992 9.38949 2.97413 12.581 2.109Z" fill="#E3E3E3"/>
</svg>
